<svg xmlns="http://www.w3.org/2000/svg" viewBox="0 0 200 200" width="100%" height="100%">
  <rect width="200" height="200" fill="#f8fafc" rx="10"/>
  <g transform="translate(100, 100) rotate(-35)">
    <rect x="-85" y="-20" width="170" height="40" fill="#e2e8f0" stroke="#94a3b8" stroke-width="2" rx="4"/>
    <!-- Scale ticks -->
    <g stroke="#0f172a" stroke-width="1.5">
      <line x1="-75" y1="-20" x2="-75" y2="-5"/>
      <line x1="-65" y1="-20" x2="-65" y2="-10"/>
      <line x1="-55" y1="-20" x2="-55" y2="-10"/>
      <line x1="-45" y1="-20" x2="-45" y2="-5"/>
      <line x1="-35" y1="-20" x2="-35" y2="-10"/>
      <line x1="-25" y1="-20" x2="-25" y2="-10"/>
      <line x1="-15" y1="-20" x2="-15" y2="-5"/>
      <line x1="-5" y1="-20" x2="-5" y2="-10"/>
      <line x1="5" y1="-20" x2="5" y2="-10"/>
      <line x1="15" y1="-20" x2="15" y2="-5"/>
      <line x1="25" y1="-20" x2="25" y2="-10"/>
      <line x1="35" y1="-20" x2="35" y2="-10"/>
      <line x1="45" y1="-20" x2="45" y2="-5"/>
      <line x1="55" y1="-20" x2="55" y2="-10"/>
      <line x1="65" y1="-20" x2="65" y2="-10"/>
      <line x1="75" y1="-20" x2="75" y2="-5"/>
    </g>
    <text x="-45" y="10" font-family="sans-serif" font-size="8" fill="#475569">CM</text>
    <text x="15" y="10" font-family="sans-serif" font-size="8" fill="#475569">STAINLESS</text>
  </g>
</svg>